<svg xmlns="http://www.w3.org/2000/svg" xmlns:xlink="http://www.w3.org/1999/xlink" width="280" zoomAndPan="magnify" viewBox="0 0 210 209.999996" height="280" preserveAspectRatio="xMidYMid meet" version="1.0"><defs><clipPath id="bf22c9fcc7"><path d="M 20 6.003906 L 189 6.003906 L 189 203.925781 L 20 203.925781 Z M 20 6.003906 " clip-rule="nonzero"/></clipPath><clipPath id="8a6a55da14"><path d="M 41.078125 75.675781 L 168.628906 75.675781 L 168.628906 133.953125 L 41.078125 133.953125 Z M 41.078125 75.675781 " clip-rule="nonzero"/></clipPath></defs><path fill="#ffffff" d="M 104.976562 0.0351562 L 82.023438 11.140625 L 60.859375 2.589844 L 19.902344 16.546875 C 19.902344 16.546875 30.707031 38.148438 28.457031 61.101562 C 26.207031 84.058594 8.125 139.433594 19.453125 156.976562 C 33.40625 178.578125 72.566406 191.179688 86.070312 198.382812 C 93.636719 202.417969 100.40625 206.824219 104.976562 209.964844 C 109.542969 206.824219 116.316406 202.417969 123.878906 198.382812 C 137.382812 191.179688 176.542969 178.582031 190.496094 156.976562 C 201.828125 139.429688 183.746094 84.054688 181.496094 61.101562 C 179.242188 38.148438 190.046875 16.546875 190.046875 16.546875 L 149.089844 2.589844 L 127.925781 11.140625 Z M 104.976562 0.0351562 " fill-opacity="1" fill-rule="nonzero"/><g clip-path="url(#bf22c9fcc7)"><path fill="#000000" d="M 104.921875 6.039062 L 83.296875 16.507812 L 63.355469 8.445312 L 24.761719 21.605469 C 24.761719 21.605469 34.941406 41.960938 32.824219 63.597656 C 30.703125 85.234375 13.664062 137.425781 24.339844 153.960938 C 37.488281 174.324219 74.386719 186.203125 87.109375 192.992188 C 94.238281 196.792969 100.617188 200.949219 104.921875 203.90625 C 109.230469 200.949219 115.609375 196.792969 122.738281 192.992188 C 135.460938 186.203125 172.359375 174.328125 185.507812 153.960938 C 196.183594 137.425781 179.144531 85.230469 177.023438 63.597656 C 174.902344 41.964844 185.082031 21.605469 185.082031 21.605469 L 146.492188 8.445312 L 126.546875 16.507812 Z M 104.921875 6.039062 " fill-opacity="1" fill-rule="nonzero"/></g><g clip-path="url(#8a6a55da14)"><path fill="#ffbe00" d="M 49.644531 125.714844 C 55 131.074219 62.117188 134.109375 69.6875 134.273438 C 69.902344 134.277344 70.113281 134.277344 70.324219 134.277344 C 73.785156 134.277344 77.179688 133.675781 80.421875 132.480469 C 83.976562 131.175781 87.203125 129.210938 90.011719 126.648438 C 90.335938 126.351562 90.664062 126.039062 90.988281 125.714844 C 91.28125 125.421875 91.570312 125.121094 91.839844 124.824219 L 104.820312 111.84375 L 104.839844 111.863281 L 108.277344 108.292969 L 111.953125 104.75 L 111.9375 104.734375 L 124.941406 91.730469 L 125.015625 91.648438 C 125.210938 91.433594 125.425781 91.210938 125.644531 90.992188 C 125.863281 90.773438 126.085938 90.558594 126.304688 90.363281 L 126.3125 90.355469 C 134.167969 83.179688 146.21875 83.460938 153.75 90.992188 C 161.496094 98.738281 161.496094 111.347656 153.75 119.09375 C 146.21875 126.625 134.167969 126.902344 126.3125 119.730469 L 126.304688 119.722656 C 126.089844 119.527344 125.867188 119.316406 125.644531 119.09375 C 125.425781 118.875 125.214844 118.652344 125.015625 118.433594 L 124.941406 118.351562 L 121.109375 114.519531 L 125.253906 110.375 L 110.488281 110.5 L 110.363281 125.269531 L 114.488281 121.140625 L 118.167969 124.820312 C 118.441406 125.117188 118.730469 125.417969 119.023438 125.710938 C 119.34375 126.035156 119.671875 126.34375 119.992188 126.640625 C 122.804688 129.203125 126.03125 131.171875 129.585938 132.476562 C 132.832031 133.671875 136.226562 134.273438 139.6875 134.273438 C 139.898438 134.273438 140.109375 134.273438 140.320312 134.269531 C 147.890625 134.109375 155.011719 131.070312 160.367188 125.710938 C 163.15625 122.921875 165.316406 119.667969 166.789062 116.039062 C 168.210938 112.535156 168.929688 108.832031 168.929688 105.039062 C 168.929688 101.246094 168.207031 97.542969 166.789062 94.039062 C 165.316406 90.410156 163.15625 87.15625 160.367188 84.367188 C 155.011719 79.011719 147.890625 75.972656 140.320312 75.808594 C 136.640625 75.730469 133.027344 76.332031 129.585938 77.601562 C 126.035156 78.910156 122.808594 80.871094 120 83.433594 C 119.675781 83.730469 119.347656 84.042969 119.023438 84.367188 C 118.726562 84.664062 118.441406 84.960938 118.167969 85.257812 L 105.316406 98.109375 L 105.3125 98.101562 L 98.382812 105.042969 L 85.070312 118.355469 L 84.996094 118.4375 C 84.800781 118.652344 84.589844 118.875 84.367188 119.09375 C 84.148438 119.316406 83.925781 119.527344 83.710938 119.722656 L 83.703125 119.730469 C 75.847656 126.902344 63.792969 126.625 56.265625 119.09375 C 52.511719 115.339844 50.441406 110.351562 50.441406 105.042969 C 50.441406 99.734375 52.511719 94.746094 56.265625 90.992188 C 60.148438 87.109375 65.230469 85.15625 70.320312 85.15625 C 75.105469 85.15625 79.894531 86.882812 83.699219 90.359375 L 83.707031 90.363281 C 83.921875 90.558594 84.144531 90.773438 84.363281 90.992188 C 84.585938 91.210938 84.796875 91.433594 84.992188 91.652344 L 85.066406 91.734375 L 95.144531 101.808594 L 101.765625 95.1875 L 91.839844 85.265625 C 91.570312 84.96875 91.28125 84.671875 90.988281 84.375 C 90.664062 84.054688 90.339844 83.742188 90.015625 83.449219 C 87.207031 80.882812 83.980469 78.917969 80.421875 77.609375 C 76.980469 76.34375 73.367188 75.742188 69.6875 75.816406 C 62.117188 75.976562 55 79.019531 49.644531 84.375 C 46.855469 87.164062 44.691406 90.417969 43.222656 94.046875 C 41.800781 97.554688 41.082031 101.253906 41.082031 105.046875 C 41.082031 108.839844 41.800781 112.542969 43.222656 116.046875 C 44.695312 119.671875 46.855469 122.925781 49.644531 125.714844 Z M 49.644531 125.714844 " fill-opacity="1" fill-rule="nonzero"/></g></svg>